<svg width="1217" height="470" viewBox="0 0 1217 470" fill="none" xmlns="http://www.w3.org/2000/svg">
<path d="M142.24 4.096C71.968 4.096 14.944 49.6 14.944 106.048C14.944 162.208 71.968 207.712 142.24 207.712C212.512 207.712 269.536 162.208 269.536 106.048C269.536 49.6 212.512 4.096 142.24 4.096ZM174.784 191.872C105.376 191.872 34.816 135.136 34.816 79.84C34.816 44.416 65.056 19.936 109.408 19.936C178.816 19.936 249.376 76.672 249.376 131.968C249.376 167.68 219.136 191.872 174.784 191.872ZM301.205 78.976C301.205 43.264 330.293 17.056 375.797 17.056C418.709 17.056 460.181 39.232 485.237 66.016L511.445 44.128C487.829 17.056 449.813 0.351995 408.629 0.351995C336.341 0.351995 281.333 49.312 281.333 106.048C281.333 162.784 336.341 211.744 408.629 211.744C442.613 211.744 474.869 200.224 498.485 180.64L495.029 178.048C480.917 189.856 461.333 195.04 441.173 195.04C370.037 195.04 301.205 134.848 301.205 78.976ZM644.08 4.096C573.808 4.096 516.784 49.6 516.784 106.048C516.784 162.208 573.808 207.712 644.08 207.712C714.352 207.712 771.376 162.208 771.376 106.048C771.376 49.6 714.352 4.096 644.08 4.096ZM676.624 191.872C607.216 191.872 536.656 135.136 536.656 79.84C536.656 44.416 566.896 19.936 611.248 19.936C680.656 19.936 751.216 76.672 751.216 131.968C751.216 167.68 720.976 191.872 676.624 191.872ZM986.501 4.384H916.805C940.133 13.024 951.653 38.656 951.653 57.952C951.653 61.12 951.077 66.592 949.637 69.472L889.445 192.448L811.109 4.384H773.381L858.053 208H895.781L891.461 197.632L986.501 4.384ZM989.414 4.67199V208.576H994.022L1024.55 184.096C1040.1 201.376 1065.16 212.32 1091.94 212.32C1108.93 212.32 1125.35 208 1139.17 200.224V155.008C1122.76 174.304 1091.08 196.192 1059.97 196.192C1045.86 196.192 1027.14 187.84 1027.14 174.592V79.552H1078.98L1111.81 106.048V75.808H1027.14V8.70399H1107.21L1140.33 34.912V4.67199H989.414Z" fill="#262424"/>
<path d="M142.24 3.096C71.6355 3.096 13.944 48.851 13.944 106.048H15.944C15.944 50.349 72.3005 5.096 142.24 5.096V3.096ZM13.944 106.048C13.944 162.959 71.6375 208.712 142.24 208.712V206.712C72.2985 206.712 15.944 161.457 15.944 106.048H13.944ZM142.24 208.712C212.843 208.712 270.536 162.959 270.536 106.048H268.536C268.536 161.457 212.181 206.712 142.24 206.712V208.712ZM270.536 106.048C270.536 48.851 212.845 3.096 142.24 3.096V5.096C212.179 5.096 268.536 50.349 268.536 106.048H270.536ZM174.784 190.872C140.339 190.872 105.562 176.787 79.3975 155.812C53.2129 134.821 35.816 107.071 35.816 79.84H33.816C33.816 107.905 51.6991 136.171 78.1465 157.372C104.614 178.589 139.821 192.872 174.784 192.872V190.872ZM35.816 79.84C35.816 62.438 43.2332 47.7457 56.107 37.383C68.9971 27.0072 87.4087 20.936 109.408 20.936V18.936C87.0553 18.936 68.1709 25.1048 54.853 35.825C41.5188 46.5582 33.816 61.818 33.816 79.84H35.816ZM109.408 20.936C143.853 20.936 178.63 35.0213 204.795 55.9962C230.979 76.9869 248.376 104.737 248.376 131.968H250.376C250.376 103.903 232.493 75.6371 206.045 54.4357C179.578 33.2186 144.371 18.936 109.408 18.936V20.936ZM248.376 131.968C248.376 149.516 240.958 164.207 228.086 174.532C215.197 184.871 196.786 190.872 174.784 190.872V192.872C197.134 192.872 216.019 186.777 229.338 176.092C242.674 165.393 250.376 150.132 250.376 131.968H248.376ZM485.237 66.016L484.507 66.6991L485.152 67.3894L485.878 66.7835L485.237 66.016ZM511.445 44.128L512.086 44.8955L512.87 44.2406L512.198 43.4706L511.445 44.128ZM498.485 180.64L499.123 181.41L500.099 180.601L499.085 179.84L498.485 180.64ZM495.029 178.048L495.629 177.248L494.995 176.773L494.387 177.281L495.029 178.048ZM302.205 78.976C302.205 61.41 309.35 46.2098 322.084 35.3859C334.829 24.5527 353.233 18.056 375.797 18.056V16.056C352.857 16.056 333.964 22.6632 320.789 33.8621C307.603 45.0702 300.205 60.83 300.205 78.976H302.205ZM375.797 18.056C418.388 18.056 459.608 40.0831 484.507 66.6991L485.967 65.3328C460.754 38.3809 419.029 16.056 375.797 16.056V18.056ZM485.878 66.7835L512.086 44.8955L510.804 43.3605L484.596 65.2485L485.878 66.7835ZM512.198 43.4706C488.373 16.1582 450.07 -0.648005 408.629 -0.648005V1.352C449.556 1.352 487.285 17.9538 510.691 44.7854L512.198 43.4706ZM408.629 -0.648005C335.949 -0.648005 280.333 48.6118 280.333 106.048H282.333C282.333 50.0122 336.733 1.352 408.629 1.352V-0.648005ZM280.333 106.048C280.333 163.484 335.949 212.744 408.629 212.744V210.744C336.733 210.744 282.333 162.084 282.333 106.048H280.333ZM408.629 212.744C442.831 212.744 475.317 201.152 499.123 181.41L497.846 179.87C474.421 199.296 442.395 210.744 408.629 210.744V212.744ZM499.085 179.84L495.629 177.248L494.429 178.848L497.885 181.44L499.085 179.84ZM494.387 177.281C480.51 188.892 461.182 194.04 441.173 194.04V196.04C461.483 196.04 481.323 190.82 495.67 178.815L494.387 177.281ZM441.173 194.04C405.877 194.04 371.107 179.101 345.158 157.196C319.191 135.276 302.205 106.515 302.205 78.976H300.205C300.205 107.309 317.635 136.58 343.868 158.724C370.118 180.883 405.332 196.04 441.173 196.04V194.04ZM644.08 3.096C573.475 3.096 515.784 48.851 515.784 106.048H517.784C517.784 50.349 574.141 5.096 644.08 5.096V3.096ZM515.784 106.048C515.784 162.959 573.477 208.712 644.08 208.712V206.712C574.139 206.712 517.784 161.457 517.784 106.048H515.784ZM644.08 208.712C714.683 208.712 772.376 162.959 772.376 106.048H770.376C770.376 161.457 714.021 206.712 644.08 206.712V208.712ZM772.376 106.048C772.376 48.851 714.685 3.096 644.08 3.096V5.096C714.019 5.096 770.376 50.349 770.376 106.048H772.376ZM676.624 190.872C642.179 190.872 607.402 176.787 581.237 155.812C555.053 134.821 537.656 107.071 537.656 79.84H535.656C535.656 107.905 553.539 136.171 579.987 157.372C606.454 178.589 641.661 192.872 676.624 192.872V190.872ZM537.656 79.84C537.656 62.438 545.073 47.7457 557.947 37.383C570.837 27.0072 589.249 20.936 611.248 20.936V18.936C588.895 18.936 570.011 25.1048 556.693 35.825C543.359 46.5582 535.656 61.818 535.656 79.84H537.656ZM611.248 20.936C645.693 20.936 680.47 35.0213 706.635 55.9962C732.819 76.9869 750.216 104.737 750.216 131.968H752.216C752.216 103.903 734.333 75.6371 707.885 54.4357C681.418 33.2186 646.211 18.936 611.248 18.936V20.936ZM750.216 131.968C750.216 149.516 742.798 164.207 729.926 174.532C717.037 184.871 698.626 190.872 676.624 190.872V192.872C698.974 192.872 717.859 186.777 731.178 176.092C744.514 165.393 752.216 150.132 752.216 131.968H750.216ZM986.501 4.384L987.398 4.82531L988.107 3.384H986.501V4.384ZM916.805 4.384V3.384L916.457 5.32174L916.805 4.384ZM949.637 69.472L948.742 69.0248L948.739 69.0324L949.637 69.472ZM889.445 192.448L888.522 192.833L889.371 194.873L890.343 192.888L889.445 192.448ZM811.109 4.384L812.032 3.99948L811.776 3.384H811.109V4.384ZM773.381 4.384V3.384H771.882L772.457 4.76796L773.381 4.384ZM858.053 208L857.129 208.384L857.386 209H858.053V208ZM895.781 208V209H897.281L896.704 207.615L895.781 208ZM891.461 197.632L890.563 197.191L890.363 197.598L890.538 198.017L891.461 197.632ZM986.501 3.384H916.805V5.384H986.501V3.384ZM916.457 5.32174C939.281 13.7747 950.653 38.94 950.653 57.952H952.653C952.653 38.372 940.985 12.2732 917.152 3.44625L916.457 5.32174ZM950.653 57.952C950.653 59.485 950.513 61.5946 950.196 63.6692C949.877 65.7645 949.391 67.7275 948.742 69.0248L950.531 69.9192C951.323 68.3365 951.845 66.1235 952.173 63.9708C952.505 61.7974 952.653 59.587 952.653 57.952H950.653ZM948.739 69.0324L888.547 192.008L890.343 192.888L950.535 69.9116L948.739 69.0324ZM890.368 192.063L812.032 3.99948L810.186 4.76851L888.522 192.833L890.368 192.063ZM811.109 3.384H773.381V5.384H811.109V3.384ZM772.457 4.76796L857.129 208.384L858.976 207.616L774.304 4.00003L772.457 4.76796ZM858.053 209H895.781V207H858.053V209ZM896.704 207.615L892.384 197.247L890.538 198.017L894.858 208.385L896.704 207.615ZM892.358 198.073L987.398 4.82531L985.603 3.94268L890.563 197.191L892.358 198.073ZM989.414 4.67199V3.67199H988.414V4.67199H989.414ZM989.414 208.576H988.414V209.576H989.414V208.576ZM994.022 208.576V209.576H994.374L994.648 209.356L994.022 208.576ZM1024.55 184.096L1025.29 183.427L1024.66 182.725L1023.92 183.316L1024.55 184.096ZM1139.17 200.224L1139.66 201.096L1140.17 200.809V200.224H1139.17ZM1139.17 155.008H1140.17V152.289L1138.41 154.36L1139.17 155.008ZM1027.14 79.552V78.552H1026.14V79.552H1027.14ZM1078.98 79.552L1079.61 78.7738L1079.34 78.552H1078.98V79.552ZM1111.81 106.048L1111.19 106.826L1112.81 108.14V106.048H1111.81ZM1111.81 75.808H1112.81V74.808H1111.81V75.808ZM1027.14 75.808H1026.14V76.808H1027.14V75.808ZM1027.14 8.70399V7.70399H1026.14V8.70399H1027.14ZM1107.21 8.70399L1107.83 7.91981L1107.55 7.70399H1107.21V8.70399ZM1140.33 34.912L1139.71 35.6962L1141.33 36.9785V34.912H1140.33ZM1140.33 4.67199H1141.33V3.67199H1140.33V4.67199ZM988.414 4.67199V208.576H990.414V4.67199H988.414ZM989.414 209.576H994.022V207.576H989.414V209.576ZM994.648 209.356L1025.18 184.876L1023.92 183.316L993.397 207.796L994.648 209.356ZM1023.81 184.765C1039.57 202.275 1064.9 213.32 1091.94 213.32V211.32C1065.41 211.32 1040.64 200.477 1025.29 183.427L1023.81 184.765ZM1091.94 213.32C1109.1 213.32 1125.69 208.958 1139.66 201.096L1138.68 199.352C1125.01 207.042 1108.77 211.32 1091.94 211.32V213.32ZM1140.17 200.224V155.008H1138.17V200.224H1140.17ZM1138.41 154.36C1130.28 163.919 1118.35 174.14 1104.59 181.967C1090.82 189.796 1075.3 195.192 1059.97 195.192V197.192C1075.75 197.192 1091.62 191.644 1105.58 183.705C1119.54 175.764 1131.65 165.393 1139.94 155.656L1138.41 154.36ZM1059.97 195.192C1053.09 195.192 1045.06 193.148 1038.77 189.495C1032.46 185.829 1028.14 180.696 1028.14 174.592H1026.14C1026.14 181.736 1031.19 187.403 1037.76 191.225C1044.37 195.06 1052.75 197.192 1059.97 197.192V195.192ZM1028.14 174.592V79.552H1026.14V174.592H1028.14ZM1027.14 80.552H1078.98V78.552H1027.14V80.552ZM1078.35 80.3302L1111.19 106.826L1112.44 105.27L1079.61 78.7738L1078.35 80.3302ZM1112.81 106.048V75.808H1110.81V106.048H1112.81ZM1111.81 74.808H1027.14V76.808H1111.81V74.808ZM1028.14 75.808V8.70399H1026.14V75.808H1028.14ZM1027.14 9.70399H1107.21V7.70399H1027.14V9.70399ZM1106.59 9.48817L1139.71 35.6962L1140.95 34.1278L1107.83 7.91981L1106.59 9.48817ZM1141.33 34.912V4.67199H1139.33V34.912H1141.33ZM1140.33 3.67199H989.414V5.67199H1140.33V3.67199Z" fill="#262424"/>
<path d="M101.529 435.22C134.676 435.22 162.864 417.994 162.864 381.976C162.864 348.046 138.591 331.603 91.611 298.717C56.637 274.444 43.326 265.57 43.326 247.561C43.326 231.901 56.115 220.939 77.517 220.939C111.186 220.939 124.758 248.605 131.022 276.01L157.383 265.309C136.242 231.379 111.708 215.98 79.344 215.98C47.763 215.98 23.229 231.118 23.229 260.089C23.229 287.494 39.672 300.544 79.605 329.254C120.321 358.486 142.767 373.102 142.767 394.504C142.767 417.994 126.846 430.261 103.878 430.261C69.426 430.261 43.848 398.419 36.801 354.571L10.44 368.665C31.059 417.994 61.857 435.22 101.529 435.22ZM252.377 430C250.55 409.12 250.028 397.897 250.028 376.234V226.159H253.16C266.471 226.159 285.263 227.986 307.187 239.209L320.759 221.2H143.54L157.112 239.209C179.036 227.986 197.828 226.159 211.139 226.159H214.271V376.234C214.271 397.897 213.749 409.12 211.922 430H252.377ZM413.404 435.22C461.167 435.22 483.874 409.642 483.874 341.26V274.966C483.874 253.303 484.396 242.08 486.223 221.2H476.566C478.393 242.08 478.915 253.303 478.915 274.966V341.26C478.915 405.205 458.818 427.39 419.407 427.39C378.169 427.39 363.031 402.595 363.031 341.26V274.966C363.031 253.303 363.553 242.08 365.38 221.2H324.925C326.752 242.08 327.274 253.303 327.274 274.966V341.26C327.274 415.906 361.987 435.22 413.404 435.22ZM563.438 430C632.081 430 673.841 392.938 673.841 325.6C673.841 255.391 630.776 221.2 563.438 221.2H499.754C501.581 242.08 502.103 253.303 502.103 274.966V376.234C502.103 397.897 501.581 409.12 499.754 430H563.438ZM537.86 226.159H562.394C605.459 226.159 635.213 257.74 635.213 325.6C635.213 390.85 605.459 425.041 562.394 425.041H537.86V226.159ZM725.172 430C723.345 409.12 722.823 397.897 722.823 376.234V274.966C722.823 253.303 723.345 242.08 725.172 221.2H684.717C686.544 242.08 687.066 253.303 687.066 274.966V376.234C687.066 397.897 686.544 409.12 684.717 430H725.172ZM865.867 228.22C796.327 228.22 739.897 273.25 739.897 329.11C739.897 384.685 796.327 429.715 865.867 429.715C935.407 429.715 991.837 384.685 991.837 329.11C991.837 273.25 935.407 228.22 865.867 228.22ZM898.072 414.04C829.387 414.04 759.562 357.895 759.562 303.175C759.562 268.12 789.487 243.895 833.377 243.895C902.062 243.895 971.887 300.04 971.887 354.76C971.887 390.1 941.962 414.04 898.072 414.04ZM1088.51 435.22C1121.66 435.22 1149.84 417.994 1149.84 381.976C1149.84 348.046 1125.57 331.603 1078.59 298.717C1043.62 274.444 1030.31 265.57 1030.31 247.561C1030.31 231.901 1043.1 220.939 1064.5 220.939C1098.17 220.939 1111.74 248.605 1118 276.01L1144.36 265.309C1123.22 231.379 1098.69 215.98 1066.32 215.98C1034.74 215.98 1010.21 231.118 1010.21 260.089C1010.21 287.494 1026.65 300.544 1066.59 329.254C1107.3 358.486 1129.75 373.102 1129.75 394.504C1129.75 417.994 1113.83 430.261 1090.86 430.261C1056.41 430.261 1030.83 398.419 1023.78 354.571L997.421 368.665C1018.04 417.994 1048.84 435.22 1088.51 435.22Z" fill="#262424"/>
<path d="M91.611 298.717L92.1845 297.898L92.1812 297.895L91.611 298.717ZM131.022 276.01L130.047 276.233L130.309 277.379L131.398 276.937L131.022 276.01ZM157.383 265.309L157.759 266.236L158.86 265.789L158.232 264.78L157.383 265.309ZM79.605 329.254L79.0213 330.066L79.0218 330.066L79.605 329.254ZM36.801 354.571L37.7883 354.412L37.5659 353.028L36.3295 353.689L36.801 354.571ZM10.44 368.665L9.96851 367.783L9.16673 368.212L9.51736 369.051L10.44 368.665ZM101.529 436.22C118.261 436.22 133.833 431.874 145.245 422.891C156.688 413.883 163.864 400.277 163.864 381.976H161.864C161.864 399.693 154.946 412.709 144.008 421.319C133.039 429.953 117.944 434.22 101.529 434.22V436.22ZM163.864 381.976C163.864 364.707 157.662 351.876 145.577 339.263C133.551 326.712 115.637 314.315 92.1845 297.898L91.0375 299.536C114.565 316.005 132.277 328.273 144.133 340.647C155.93 352.959 161.864 365.315 161.864 381.976H163.864ZM92.1812 297.895C74.6567 285.733 62.6754 277.504 55.0512 270.074C47.4925 262.707 44.326 256.231 44.326 247.561H42.326C42.326 256.9 45.815 263.865 53.6553 271.506C61.4301 279.083 73.5913 287.428 91.0408 299.539L92.1812 297.895ZM44.326 247.561C44.326 240.028 47.3907 233.662 53.0204 229.158C58.6704 224.638 66.9774 221.939 77.517 221.939V219.939C66.6546 219.939 57.8661 222.721 51.7711 227.597C45.6558 232.489 42.326 239.434 42.326 247.561H44.326ZM77.517 221.939C94.0284 221.939 105.561 228.702 113.77 238.827C122.014 248.996 126.929 262.59 130.047 276.233L131.997 275.787C128.851 262.025 123.849 248.084 115.323 237.568C106.763 227.009 94.6746 219.939 77.517 219.939V221.939ZM131.398 276.937L157.759 266.236L157.007 264.382L130.646 275.083L131.398 276.937ZM158.232 264.78C147.607 247.729 136.091 235.269 123.106 227.075C110.109 218.874 95.6961 214.98 79.344 214.98V216.98C95.3559 216.98 109.392 220.786 122.038 228.766C134.697 236.754 146.018 248.959 156.534 265.838L158.232 264.78ZM79.344 214.98C63.4095 214.98 49.1526 218.797 38.8516 226.364C28.5162 233.957 22.229 245.282 22.229 260.089H24.229C24.229 245.925 30.2088 235.195 40.0357 227.976C49.8969 220.732 63.6975 216.98 79.344 216.98V214.98ZM22.229 260.089C22.229 274.051 26.4398 284.397 35.6935 294.845C44.8854 305.223 59.0824 315.731 79.0213 330.066L80.1887 328.442C60.1946 314.067 46.2036 303.695 37.1907 293.519C28.2397 283.413 24.229 273.532 24.229 260.089H22.229ZM79.0218 330.066C99.4164 344.709 115.132 355.62 125.772 365.546C136.396 375.458 141.767 384.215 141.767 394.504H143.767C143.767 383.391 137.915 374.139 127.137 364.084C116.375 354.044 100.51 343.031 80.1882 328.442L79.0218 330.066ZM141.767 394.504C141.767 406.009 137.877 414.655 131.276 420.439C124.657 426.239 115.194 429.261 103.878 429.261V431.261C115.53 431.261 125.512 428.149 132.595 421.943C139.696 415.721 143.767 406.489 143.767 394.504H141.767ZM103.878 429.261C70.1612 429.261 44.8039 398.065 37.7883 354.412L35.8137 354.73C42.8921 398.773 68.6908 431.261 103.878 431.261V429.261ZM36.3295 353.689L9.96851 367.783L10.9115 369.547L37.2725 355.453L36.3295 353.689ZM9.51736 369.051C19.8785 393.839 32.8369 410.655 48.2732 421.265C63.7148 431.879 81.5439 436.22 101.529 436.22V434.22C81.8421 434.22 64.4362 429.948 49.4061 419.617C34.3706 409.282 21.6205 392.82 11.3626 368.279L9.51736 369.051ZM252.377 430V431H253.468L253.373 429.913L252.377 430ZM250.028 226.159V225.159H249.028V226.159H250.028ZM307.187 239.209L306.731 240.099L307.479 240.482L307.985 239.811L307.187 239.209ZM320.759 221.2L321.557 221.802L322.765 220.2H320.759V221.2ZM143.54 221.2V220.2H141.534L142.741 221.802L143.54 221.2ZM157.112 239.209L156.313 239.811L156.819 240.482L157.567 240.099L157.112 239.209ZM214.271 226.159H215.271V225.159H214.271V226.159ZM211.922 430L210.926 429.913L210.83 431H211.922V430ZM253.373 429.913C251.548 409.061 251.028 397.867 251.028 376.234H249.028C249.028 397.927 249.551 409.179 251.381 430.087L253.373 429.913ZM251.028 376.234V226.159H249.028V376.234H251.028ZM250.028 227.159H253.16V225.159H250.028V227.159ZM253.16 227.159C266.364 227.159 284.988 228.969 306.731 240.099L307.642 238.319C285.538 227.003 266.578 225.159 253.16 225.159V227.159ZM307.985 239.811L321.557 221.802L319.96 220.598L306.388 238.607L307.985 239.811ZM320.759 220.2H143.54V222.2H320.759V220.2ZM142.741 221.802L156.313 239.811L157.91 238.607L144.338 220.598L142.741 221.802ZM157.567 240.099C179.311 228.969 197.935 227.159 211.139 227.159V225.159C197.721 225.159 178.761 227.003 156.656 238.319L157.567 240.099ZM211.139 227.159H214.271V225.159H211.139V227.159ZM213.271 226.159V376.234H215.271V226.159H213.271ZM213.271 376.234C213.271 397.867 212.75 409.061 210.926 429.913L212.918 430.087C214.747 409.179 215.271 397.927 215.271 376.234H213.271ZM211.922 431H252.377V429H211.922V431ZM486.223 221.2L487.219 221.287L487.314 220.2H486.223V221.2ZM476.566 221.2V220.2H475.474L475.569 221.287L476.566 221.2ZM365.38 221.2L366.376 221.287L366.471 220.2H365.38V221.2ZM324.925 221.2V220.2H323.833L323.928 221.287L324.925 221.2ZM413.404 436.22C437.464 436.22 455.434 429.77 467.338 414.498C479.194 399.288 484.874 375.519 484.874 341.26H482.874C482.874 375.383 477.2 398.594 465.761 413.268C454.371 427.881 437.107 434.22 413.404 434.22V436.22ZM484.874 341.26V274.966H482.874V341.26H484.874ZM484.874 274.966C484.874 253.333 485.394 242.139 487.219 221.287L485.226 221.113C483.397 242.021 482.874 253.273 482.874 274.966H484.874ZM486.223 220.2H476.566V222.2H486.223V220.2ZM475.569 221.287C477.394 242.139 477.915 253.333 477.915 274.966H479.915C479.915 253.273 479.391 242.021 477.562 221.113L475.569 221.287ZM477.915 274.966V341.26H479.915V274.966H477.915ZM477.915 341.26C477.915 373.172 472.891 394.436 463.134 407.712C453.434 420.911 438.915 426.39 419.407 426.39V428.39C439.309 428.39 454.545 422.776 464.746 408.897C474.89 395.094 479.915 373.293 479.915 341.26H477.915ZM419.407 426.39C399.011 426.39 385.295 420.278 376.595 406.784C367.822 393.177 364.031 371.898 364.031 341.26H362.031C362.031 371.957 365.808 393.743 374.914 407.867C384.093 422.105 398.565 428.39 419.407 428.39V426.39ZM364.031 341.26V274.966H362.031V341.26H364.031ZM364.031 274.966C364.031 253.333 364.551 242.139 366.376 221.287L364.383 221.113C362.554 242.021 362.031 253.273 362.031 274.966H364.031ZM365.38 220.2H324.925V222.2H365.38V220.2ZM323.928 221.287C325.753 242.139 326.274 253.333 326.274 274.966H328.274C328.274 253.273 327.75 242.021 325.921 221.113L323.928 221.287ZM326.274 274.966V341.26H328.274V274.966H326.274ZM326.274 341.26C326.274 378.715 334.981 402.533 350.373 416.962C365.755 431.38 387.602 436.22 413.404 436.22V434.22C387.788 434.22 366.57 429.403 351.741 415.503C336.923 401.613 328.274 378.451 328.274 341.26H326.274ZM499.754 221.2V220.2H498.663L498.758 221.287L499.754 221.2ZM499.754 430L498.758 429.913L498.663 431H499.754V430ZM537.86 226.159V225.159H536.86V226.159H537.86ZM537.86 425.041H536.86V426.041H537.86V425.041ZM563.438 431C597.932 431 625.805 421.687 645.061 403.784C664.329 385.872 674.841 359.481 674.841 325.6H672.841C672.841 359.057 662.473 384.866 643.7 402.319C624.916 419.782 597.587 429 563.438 429V431ZM674.841 325.6C674.841 290.285 664.003 263.886 644.561 246.329C625.136 228.788 597.264 220.2 563.438 220.2V222.2C596.95 222.2 624.279 230.708 643.221 247.814C662.146 264.905 672.841 290.706 672.841 325.6H674.841ZM563.438 220.2H499.754V222.2H563.438V220.2ZM498.758 221.287C500.582 242.139 501.103 253.333 501.103 274.966H503.103C503.103 253.273 502.579 242.021 500.75 221.113L498.758 221.287ZM501.103 274.966V376.234H503.103V274.966H501.103ZM501.103 376.234C501.103 397.867 500.582 409.061 498.758 429.913L500.75 430.087C502.579 409.179 503.103 397.927 503.103 376.234H501.103ZM499.754 431H563.438V429H499.754V431ZM537.86 227.159H562.394V225.159H537.86V227.159ZM562.394 227.159C583.659 227.159 601.557 234.943 614.165 251.048C626.8 267.188 634.213 291.798 634.213 325.6H636.213C636.213 291.542 628.748 266.432 615.74 249.816C602.705 233.165 584.193 225.159 562.394 225.159V227.159ZM634.213 325.6C634.213 358.088 626.804 382.707 614.159 399.18C601.538 415.623 583.634 424.041 562.394 424.041V426.041C584.218 426.041 602.724 417.363 615.746 400.398C628.745 383.463 636.213 358.362 636.213 325.6H634.213ZM562.394 424.041H537.86V426.041H562.394V424.041ZM538.86 425.041V226.159H536.86V425.041H538.86ZM725.172 430V431H726.264L726.168 429.913L725.172 430ZM725.172 221.2L726.168 221.287L726.264 220.2H725.172V221.2ZM684.717 221.2V220.2H683.626L683.721 221.287L684.717 221.2ZM684.717 430L683.721 429.913L683.626 431H684.717V430ZM726.168 429.913C724.344 409.061 723.823 397.867 723.823 376.234H721.823C721.823 397.927 722.347 409.179 724.176 430.087L726.168 429.913ZM723.823 376.234V274.966H721.823V376.234H723.823ZM723.823 274.966C723.823 253.333 724.344 242.139 726.168 221.287L724.176 221.113C722.347 242.021 721.823 253.273 721.823 274.966H723.823ZM725.172 220.2H684.717V222.2H725.172V220.2ZM683.721 221.287C685.546 242.139 686.066 253.333 686.066 274.966H688.066C688.066 253.273 687.543 242.021 685.713 221.113L683.721 221.287ZM686.066 274.966V376.234H688.066V274.966H686.066ZM686.066 376.234C686.066 397.867 685.546 409.061 683.721 429.913L685.713 430.087C687.543 409.179 688.066 397.927 688.066 376.234H686.066ZM684.717 431H725.172V429H684.717V431ZM865.867 227.22C795.994 227.22 738.897 272.501 738.897 329.11H740.897C740.897 273.999 796.659 229.22 865.867 229.22V227.22ZM738.897 329.11C738.897 385.436 795.996 430.715 865.867 430.715V428.715C796.657 428.715 740.897 383.934 740.897 329.11H738.897ZM865.867 430.715C935.737 430.715 992.837 385.436 992.837 329.11H990.837C990.837 383.934 935.076 428.715 865.867 428.715V430.715ZM992.837 329.11C992.837 272.501 935.739 227.22 865.867 227.22V229.22C935.074 229.22 990.837 273.999 990.837 329.11H992.837ZM898.072 413.04C863.988 413.04 829.576 399.102 803.685 378.347C777.775 357.576 760.562 330.118 760.562 303.175H758.562C758.562 330.952 776.261 358.926 802.434 379.908C828.627 400.905 863.47 415.04 898.072 415.04V413.04ZM760.562 303.175C760.562 285.957 767.9 271.421 780.638 261.168C793.391 250.902 811.609 244.895 833.377 244.895V242.895C811.255 242.895 792.565 249 779.383 259.61C766.186 270.234 758.562 285.338 758.562 303.175H760.562ZM833.377 244.895C867.46 244.895 901.872 258.833 927.763 279.588C953.674 300.359 970.887 327.817 970.887 354.76H972.887C972.887 326.983 955.187 299.009 929.014 278.027C902.821 257.03 867.978 242.895 833.377 242.895V244.895ZM970.887 354.76C970.887 372.122 963.547 386.657 950.812 396.872C938.06 407.102 919.843 413.04 898.072 413.04V415.04C920.191 415.04 938.881 409.008 952.064 398.433C965.264 387.843 972.887 372.738 972.887 354.76H970.887ZM1078.59 298.717L1079.17 297.898L1079.16 297.895L1078.59 298.717ZM1118 276.01L1117.03 276.233L1117.29 277.379L1118.38 276.937L1118 276.01ZM1144.36 265.309L1144.74 266.236L1145.84 265.789L1145.21 264.78L1144.36 265.309ZM1066.59 329.254L1066 330.066L1066 330.066L1066.59 329.254ZM1023.78 354.571L1024.77 354.412L1024.55 353.028L1023.31 353.689L1023.78 354.571ZM997.421 368.665L996.949 367.783L996.147 368.212L996.498 369.051L997.421 368.665ZM1088.51 436.22C1105.24 436.22 1120.81 431.874 1132.23 422.891C1143.67 413.883 1150.84 400.277 1150.84 381.976H1148.84C1148.84 399.693 1141.93 412.709 1130.99 421.319C1120.02 429.953 1104.92 434.22 1088.51 434.22V436.22ZM1150.84 381.976C1150.84 364.707 1144.64 351.876 1132.56 339.263C1120.53 326.712 1102.62 314.315 1079.17 297.898L1078.02 299.536C1101.55 316.005 1119.26 328.273 1131.11 340.647C1142.91 352.959 1148.84 365.315 1148.84 381.976H1150.84ZM1079.16 297.895C1061.64 285.733 1049.66 277.504 1042.03 270.074C1034.47 262.707 1031.31 256.231 1031.31 247.561H1029.31C1029.31 256.9 1032.8 263.865 1040.64 271.506C1048.41 279.083 1060.57 287.428 1078.02 299.539L1079.16 297.895ZM1031.31 247.561C1031.31 240.028 1034.37 233.662 1040 229.158C1045.65 224.638 1053.96 221.939 1064.5 221.939V219.939C1053.64 219.939 1044.85 222.721 1038.75 227.597C1032.64 232.489 1029.31 239.434 1029.31 247.561H1031.31ZM1064.5 221.939C1081.01 221.939 1092.54 228.702 1100.75 238.827C1108.99 248.996 1113.91 262.59 1117.03 276.233L1118.98 275.787C1115.83 262.025 1110.83 248.084 1102.3 237.568C1093.74 227.009 1081.66 219.939 1064.5 219.939V221.939ZM1118.38 276.937L1144.74 266.236L1143.99 264.382L1117.63 275.083L1118.38 276.937ZM1145.21 264.78C1134.59 247.729 1123.07 235.269 1110.09 227.075C1097.09 218.874 1082.68 214.98 1066.32 214.98V216.98C1082.34 216.98 1096.37 220.786 1109.02 228.766C1121.68 236.754 1133 248.959 1143.51 265.838L1145.21 264.78ZM1066.32 214.98C1050.39 214.98 1036.13 218.797 1025.83 226.364C1015.5 233.957 1009.21 245.282 1009.21 260.089H1011.21C1011.21 245.925 1017.19 235.195 1027.02 227.976C1036.88 220.732 1050.68 216.98 1066.32 216.98V214.98ZM1009.21 260.089C1009.21 274.051 1013.42 284.397 1022.67 294.845C1031.87 305.223 1046.06 315.731 1066 330.066L1067.17 328.442C1047.18 314.067 1033.18 303.695 1024.17 293.519C1015.22 283.413 1011.21 273.532 1011.21 260.089H1009.21ZM1066 330.066C1086.4 344.709 1102.11 355.62 1112.75 365.546C1123.38 375.458 1128.75 384.215 1128.75 394.504H1130.75C1130.75 383.391 1124.9 374.139 1114.12 364.084C1103.36 354.044 1087.49 343.031 1067.17 328.442L1066 330.066ZM1128.75 394.504C1128.75 406.009 1124.86 414.655 1118.26 420.439C1111.64 426.239 1102.17 429.261 1090.86 429.261V431.261C1102.51 431.261 1112.49 428.149 1119.58 421.943C1126.68 415.721 1130.75 406.489 1130.75 394.504H1128.75ZM1090.86 429.261C1057.14 429.261 1031.78 398.065 1024.77 354.412L1022.79 354.73C1029.87 398.773 1055.67 431.261 1090.86 431.261V429.261ZM1023.31 353.689L996.949 367.783L997.892 369.547L1024.25 355.453L1023.31 353.689ZM996.498 369.051C1006.86 393.839 1019.82 410.655 1035.25 421.265C1050.7 431.879 1068.52 436.22 1088.51 436.22V434.22C1068.82 434.22 1051.42 429.948 1036.39 419.617C1021.35 409.282 1008.6 392.82 998.343 368.279L996.498 369.051Z" fill="#262424"/>
</svg>
